<mxfile host="65bd71144e">
    <diagram id="sGTh_HIut4q6rHhZAafT" name="Page-1">
        <mxGraphModel dx="1774" dy="1133" grid="1" gridSize="10" guides="1" tooltips="1" connect="1" arrows="1" fold="1" page="1" pageScale="1" pageWidth="1200" pageHeight="1920" math="0" shadow="0">
            <root>
                <mxCell id="0"/>
                <mxCell id="1" parent="0"/>
                <mxCell id="5" value="" style="rounded=0;whiteSpace=wrap;html=1;movable=1;resizable=1;rotatable=1;deletable=1;editable=1;locked=0;connectable=1;fillColor=#ffe6cc;strokeColor=#d79b00;" parent="1" vertex="1">
                    <mxGeometry x="40" y="240" width="880" height="80" as="geometry"/>
                </mxCell>
                <mxCell id="38" value="&lt;span style=&quot;font-size: 18px;&quot;&gt;单向链表&lt;/span&gt;" style="text;html=1;align=center;verticalAlign=middle;whiteSpace=wrap;rounded=0;" parent="1" vertex="1">
                    <mxGeometry x="420" y="200" width="110" height="30" as="geometry"/>
                </mxCell>
                <mxCell id="39" value="&lt;span style=&quot;font-size: 18px;&quot;&gt;单链表的单个节点&lt;/span&gt;" style="text;html=1;align=center;verticalAlign=middle;whiteSpace=wrap;rounded=0;" parent="1" vertex="1">
                    <mxGeometry x="210" y="115" width="160" height="30" as="geometry"/>
                </mxCell>
                <mxCell id="40" value="" style="rounded=0;whiteSpace=wrap;html=1;fillColor=#cdeb8b;strokeColor=#36393d;" parent="1" vertex="1">
                    <mxGeometry x="50" y="250" width="140" height="60" as="geometry"/>
                </mxCell>
                <mxCell id="7" value="&lt;font style=&quot;color: light-dark(rgb(255, 255, 255), rgb(237, 237, 237)); font-size: 18px;&quot;&gt;Apple&lt;/font&gt;" style="rounded=0;whiteSpace=wrap;html=1;fillColor=light-dark(#3d91ff, #ededed);" parent="1" vertex="1">
                    <mxGeometry x="60" y="260" width="80" height="40" as="geometry"/>
                </mxCell>
                <mxCell id="59" style="edgeStyle=none;html=1;exitX=1;exitY=0.5;exitDx=0;exitDy=0;" parent="1" source="8" edge="1">
                    <mxGeometry relative="1" as="geometry">
                        <mxPoint x="230" y="279.96" as="targetPoint"/>
                    </mxGeometry>
                </mxCell>
                <mxCell id="8" value="&lt;font style=&quot;color: light-dark(rgb(255, 255, 255), rgb(237, 237, 237)); font-size: 14px;&quot;&gt;next&lt;/font&gt;" style="rounded=0;whiteSpace=wrap;html=1;fillColor=#FF6666;" parent="1" vertex="1">
                    <mxGeometry x="140" y="260" width="40" height="40" as="geometry"/>
                </mxCell>
                <mxCell id="41" value="" style="rounded=0;whiteSpace=wrap;html=1;fillColor=#cdeb8b;strokeColor=#36393d;" parent="1" vertex="1">
                    <mxGeometry x="230" y="250" width="140" height="60" as="geometry"/>
                </mxCell>
                <mxCell id="53" style="edgeStyle=none;html=1;exitX=1;exitY=0.5;exitDx=0;exitDy=0;" parent="1" source="42" edge="1">
                    <mxGeometry relative="1" as="geometry">
                        <mxPoint x="410" y="280" as="targetPoint"/>
                    </mxGeometry>
                </mxCell>
                <mxCell id="42" value="&lt;font style=&quot;color: light-dark(rgb(255, 255, 255), rgb(237, 237, 237)); font-size: 14px;&quot;&gt;next&lt;/font&gt;" style="rounded=0;whiteSpace=wrap;html=1;fillColor=#FF6666;" parent="1" vertex="1">
                    <mxGeometry x="320" y="260" width="40" height="40" as="geometry"/>
                </mxCell>
                <mxCell id="43" value="&lt;font style=&quot;color: light-dark(rgb(255, 255, 255), rgb(237, 237, 237)); font-size: 18px;&quot;&gt;Banana&lt;/font&gt;" style="rounded=0;whiteSpace=wrap;html=1;fillColor=light-dark(#3d91ff, #ededed);" parent="1" vertex="1">
                    <mxGeometry x="240" y="260" width="80" height="40" as="geometry"/>
                </mxCell>
                <mxCell id="44" value="" style="rounded=0;whiteSpace=wrap;html=1;fillColor=#cdeb8b;strokeColor=#36393d;" parent="1" vertex="1">
                    <mxGeometry x="410" y="250" width="140" height="60" as="geometry"/>
                </mxCell>
                <mxCell id="54" style="edgeStyle=none;html=1;exitX=1;exitY=0.5;exitDx=0;exitDy=0;" parent="1" source="45" edge="1">
                    <mxGeometry relative="1" as="geometry">
                        <mxPoint x="590" y="280" as="targetPoint"/>
                    </mxGeometry>
                </mxCell>
                <mxCell id="45" value="&lt;font style=&quot;color: light-dark(rgb(255, 255, 255), rgb(237, 237, 237)); font-size: 14px;&quot;&gt;next&lt;/font&gt;" style="rounded=0;whiteSpace=wrap;html=1;fillColor=#FF6666;" parent="1" vertex="1">
                    <mxGeometry x="500" y="260" width="40" height="40" as="geometry"/>
                </mxCell>
                <mxCell id="46" value="&lt;font style=&quot;color: light-dark(rgb(255, 255, 255), rgb(237, 237, 237)); font-size: 18px;&quot;&gt;Orange&lt;/font&gt;" style="rounded=0;whiteSpace=wrap;html=1;fillColor=light-dark(#3d91ff, #ededed);" parent="1" vertex="1">
                    <mxGeometry x="420" y="260" width="80" height="40" as="geometry"/>
                </mxCell>
                <mxCell id="55" style="edgeStyle=none;html=1;exitX=1;exitY=0.5;exitDx=0;exitDy=0;" parent="1" source="47" edge="1">
                    <mxGeometry relative="1" as="geometry">
                        <mxPoint x="770" y="280" as="targetPoint"/>
                    </mxGeometry>
                </mxCell>
                <mxCell id="47" value="" style="rounded=0;whiteSpace=wrap;html=1;fillColor=#cdeb8b;strokeColor=#36393d;" parent="1" vertex="1">
                    <mxGeometry x="590" y="250" width="140" height="60" as="geometry"/>
                </mxCell>
                <mxCell id="48" value="&lt;font style=&quot;color: light-dark(rgb(255, 255, 255), rgb(237, 237, 237)); font-size: 14px;&quot;&gt;next&lt;/font&gt;" style="rounded=0;whiteSpace=wrap;html=1;fillColor=#FF6666;" parent="1" vertex="1">
                    <mxGeometry x="680" y="260" width="40" height="40" as="geometry"/>
                </mxCell>
                <mxCell id="49" value="&lt;font style=&quot;color: light-dark(rgb(255, 255, 255), rgb(237, 237, 237)); font-size: 18px;&quot;&gt;Peach&lt;/font&gt;" style="rounded=0;whiteSpace=wrap;html=1;fillColor=light-dark(#3d91ff, #ededed);" parent="1" vertex="1">
                    <mxGeometry x="600" y="260" width="80" height="40" as="geometry"/>
                </mxCell>
                <mxCell id="50" value="" style="rounded=0;whiteSpace=wrap;html=1;fillColor=#cdeb8b;strokeColor=#36393d;" parent="1" vertex="1">
                    <mxGeometry x="770" y="250" width="140" height="60" as="geometry"/>
                </mxCell>
                <mxCell id="51" value="&lt;font style=&quot;color: light-dark(rgb(255, 255, 255), rgb(237, 237, 237)); font-size: 14px;&quot;&gt;next&lt;/font&gt;" style="rounded=0;whiteSpace=wrap;html=1;fillColor=#FF6666;" parent="1" vertex="1">
                    <mxGeometry x="860" y="260" width="40" height="40" as="geometry"/>
                </mxCell>
                <mxCell id="52" value="&lt;font style=&quot;color: light-dark(rgb(255, 255, 255), rgb(237, 237, 237)); font-size: 18px;&quot;&gt;Pear&lt;/font&gt;" style="rounded=0;whiteSpace=wrap;html=1;fillColor=light-dark(#3d91ff, #ededed);" parent="1" vertex="1">
                    <mxGeometry x="780" y="260" width="80" height="40" as="geometry"/>
                </mxCell>
                <mxCell id="56" value="" style="rounded=0;whiteSpace=wrap;html=1;fillColor=#cdeb8b;strokeColor=#36393d;" parent="1" vertex="1">
                    <mxGeometry x="60" y="100" width="140" height="60" as="geometry"/>
                </mxCell>
                <mxCell id="57" value="&lt;font style=&quot;color: light-dark(rgb(255, 255, 255), rgb(237, 237, 237)); font-size: 18px;&quot;&gt;node&lt;/font&gt;" style="rounded=0;whiteSpace=wrap;html=1;fillColor=light-dark(#3d91ff, #ededed);" parent="1" vertex="1">
                    <mxGeometry x="70" y="110" width="80" height="40" as="geometry"/>
                </mxCell>
                <mxCell id="58" value="&lt;font style=&quot;color: light-dark(rgb(255, 255, 255), rgb(237, 237, 237)); font-size: 14px;&quot;&gt;next&lt;/font&gt;" style="rounded=0;whiteSpace=wrap;html=1;fillColor=#FF6666;" parent="1" vertex="1">
                    <mxGeometry x="150" y="110" width="40" height="40" as="geometry"/>
                </mxCell>
                <mxCell id="113" value="" style="rounded=0;whiteSpace=wrap;html=1;movable=1;resizable=1;rotatable=1;deletable=1;editable=1;locked=0;connectable=1;fillColor=#ffe6cc;strokeColor=#d79b00;" vertex="1" parent="1">
                    <mxGeometry x="40" y="440" width="880" height="180" as="geometry"/>
                </mxCell>
                <mxCell id="114" value="&lt;span style=&quot;font-size: 18px;&quot;&gt;单向链表-在 Banana 节点后添加 Lemon 节点&lt;/span&gt;" style="text;html=1;align=center;verticalAlign=middle;whiteSpace=wrap;rounded=0;" vertex="1" parent="1">
                    <mxGeometry x="270" y="400" width="430" height="30" as="geometry"/>
                </mxCell>
                <mxCell id="115" value="" style="rounded=0;whiteSpace=wrap;html=1;fillColor=#cdeb8b;strokeColor=#36393d;" vertex="1" parent="1">
                    <mxGeometry x="50" y="450" width="140" height="60" as="geometry"/>
                </mxCell>
                <mxCell id="116" value="&lt;font style=&quot;color: light-dark(rgb(255, 255, 255), rgb(237, 237, 237)); font-size: 18px;&quot;&gt;Apple&lt;/font&gt;" style="rounded=0;whiteSpace=wrap;html=1;fillColor=light-dark(#3d91ff, #ededed);" vertex="1" parent="1">
                    <mxGeometry x="60" y="460" width="80" height="40" as="geometry"/>
                </mxCell>
                <mxCell id="117" style="edgeStyle=none;html=1;exitX=1;exitY=0.5;exitDx=0;exitDy=0;" edge="1" source="118" parent="1">
                    <mxGeometry relative="1" as="geometry">
                        <mxPoint x="230" y="479.96" as="targetPoint"/>
                    </mxGeometry>
                </mxCell>
                <mxCell id="118" value="&lt;font style=&quot;color: light-dark(rgb(255, 255, 255), rgb(237, 237, 237)); font-size: 14px;&quot;&gt;next&lt;/font&gt;" style="rounded=0;whiteSpace=wrap;html=1;fillColor=#FF6666;" vertex="1" parent="1">
                    <mxGeometry x="140" y="460" width="40" height="40" as="geometry"/>
                </mxCell>
                <mxCell id="119" value="" style="rounded=0;whiteSpace=wrap;html=1;fillColor=#cdeb8b;strokeColor=#36393d;" vertex="1" parent="1">
                    <mxGeometry x="230" y="450" width="140" height="60" as="geometry"/>
                </mxCell>
                <mxCell id="120" style="edgeStyle=none;html=1;exitX=1;exitY=0.5;exitDx=0;exitDy=0;" edge="1" source="121" parent="1">
                    <mxGeometry relative="1" as="geometry">
                        <mxPoint x="410" y="480" as="targetPoint"/>
                    </mxGeometry>
                </mxCell>
                <mxCell id="137" style="edgeStyle=orthogonalEdgeStyle;html=1;exitX=0.5;exitY=1;exitDx=0;exitDy=0;entryX=0;entryY=0.5;entryDx=0;entryDy=0;" edge="1" parent="1" source="121" target="134">
                    <mxGeometry relative="1" as="geometry">
                        <Array as="points">
                            <mxPoint x="340" y="530"/>
                            <mxPoint x="270" y="530"/>
                            <mxPoint x="270" y="580"/>
                        </Array>
                    </mxGeometry>
                </mxCell>
                <mxCell id="121" value="&lt;font style=&quot;color: light-dark(rgb(255, 255, 255), rgb(237, 237, 237)); font-size: 14px;&quot;&gt;next&lt;/font&gt;" style="rounded=0;whiteSpace=wrap;html=1;fillColor=#FF6666;" vertex="1" parent="1">
                    <mxGeometry x="320" y="460" width="40" height="40" as="geometry"/>
                </mxCell>
                <mxCell id="122" value="&lt;font style=&quot;color: light-dark(rgb(255, 255, 255), rgb(237, 237, 237)); font-size: 18px;&quot;&gt;Banana&lt;/font&gt;" style="rounded=0;whiteSpace=wrap;html=1;fillColor=light-dark(#3d91ff, #ededed);" vertex="1" parent="1">
                    <mxGeometry x="240" y="460" width="80" height="40" as="geometry"/>
                </mxCell>
                <mxCell id="123" value="" style="rounded=0;whiteSpace=wrap;html=1;fillColor=#cdeb8b;strokeColor=#36393d;" vertex="1" parent="1">
                    <mxGeometry x="410" y="450" width="140" height="60" as="geometry"/>
                </mxCell>
                <mxCell id="124" style="edgeStyle=none;html=1;exitX=1;exitY=0.5;exitDx=0;exitDy=0;" edge="1" source="125" parent="1">
                    <mxGeometry relative="1" as="geometry">
                        <mxPoint x="590" y="480" as="targetPoint"/>
                    </mxGeometry>
                </mxCell>
                <mxCell id="125" value="&lt;font style=&quot;color: light-dark(rgb(255, 255, 255), rgb(237, 237, 237)); font-size: 14px;&quot;&gt;next&lt;/font&gt;" style="rounded=0;whiteSpace=wrap;html=1;fillColor=#FF6666;" vertex="1" parent="1">
                    <mxGeometry x="500" y="460" width="40" height="40" as="geometry"/>
                </mxCell>
                <mxCell id="126" value="&lt;font style=&quot;color: light-dark(rgb(255, 255, 255), rgb(237, 237, 237)); font-size: 18px;&quot;&gt;Orange&lt;/font&gt;" style="rounded=0;whiteSpace=wrap;html=1;fillColor=light-dark(#3d91ff, #ededed);" vertex="1" parent="1">
                    <mxGeometry x="420" y="460" width="80" height="40" as="geometry"/>
                </mxCell>
                <mxCell id="127" style="edgeStyle=none;html=1;exitX=1;exitY=0.5;exitDx=0;exitDy=0;" edge="1" source="128" parent="1">
                    <mxGeometry relative="1" as="geometry">
                        <mxPoint x="770" y="480" as="targetPoint"/>
                    </mxGeometry>
                </mxCell>
                <mxCell id="128" value="" style="rounded=0;whiteSpace=wrap;html=1;fillColor=#cdeb8b;strokeColor=#36393d;" vertex="1" parent="1">
                    <mxGeometry x="590" y="450" width="140" height="60" as="geometry"/>
                </mxCell>
                <mxCell id="129" value="&lt;font style=&quot;color: light-dark(rgb(255, 255, 255), rgb(237, 237, 237)); font-size: 14px;&quot;&gt;next&lt;/font&gt;" style="rounded=0;whiteSpace=wrap;html=1;fillColor=#FF6666;" vertex="1" parent="1">
                    <mxGeometry x="680" y="460" width="40" height="40" as="geometry"/>
                </mxCell>
                <mxCell id="130" value="&lt;font style=&quot;color: light-dark(rgb(255, 255, 255), rgb(237, 237, 237)); font-size: 18px;&quot;&gt;Peach&lt;/font&gt;" style="rounded=0;whiteSpace=wrap;html=1;fillColor=light-dark(#3d91ff, #ededed);" vertex="1" parent="1">
                    <mxGeometry x="600" y="460" width="80" height="40" as="geometry"/>
                </mxCell>
                <mxCell id="131" value="" style="rounded=0;whiteSpace=wrap;html=1;fillColor=#cdeb8b;strokeColor=#36393d;" vertex="1" parent="1">
                    <mxGeometry x="770" y="450" width="140" height="60" as="geometry"/>
                </mxCell>
                <mxCell id="132" value="&lt;font style=&quot;color: light-dark(rgb(255, 255, 255), rgb(237, 237, 237)); font-size: 14px;&quot;&gt;next&lt;/font&gt;" style="rounded=0;whiteSpace=wrap;html=1;fillColor=#FF6666;" vertex="1" parent="1">
                    <mxGeometry x="860" y="460" width="40" height="40" as="geometry"/>
                </mxCell>
                <mxCell id="133" value="&lt;font style=&quot;color: light-dark(rgb(255, 255, 255), rgb(237, 237, 237)); font-size: 18px;&quot;&gt;Pear&lt;/font&gt;" style="rounded=0;whiteSpace=wrap;html=1;fillColor=light-dark(#3d91ff, #ededed);" vertex="1" parent="1">
                    <mxGeometry x="780" y="460" width="80" height="40" as="geometry"/>
                </mxCell>
                <mxCell id="134" value="" style="rounded=0;whiteSpace=wrap;html=1;fillColor=#cdeb8b;strokeColor=#36393d;" vertex="1" parent="1">
                    <mxGeometry x="320" y="550" width="140" height="60" as="geometry"/>
                </mxCell>
                <mxCell id="139" style="edgeStyle=orthogonalEdgeStyle;html=1;exitX=1;exitY=0.5;exitDx=0;exitDy=0;" edge="1" parent="1" source="135" target="123">
                    <mxGeometry relative="1" as="geometry"/>
                </mxCell>
                <mxCell id="135" value="&lt;font style=&quot;color: light-dark(rgb(255, 255, 255), rgb(237, 237, 237)); font-size: 14px;&quot;&gt;next&lt;/font&gt;" style="rounded=0;whiteSpace=wrap;html=1;fillColor=#FF6666;" vertex="1" parent="1">
                    <mxGeometry x="410" y="560" width="40" height="40" as="geometry"/>
                </mxCell>
                <mxCell id="136" value="&lt;font style=&quot;color: light-dark(rgb(255, 255, 255), rgb(237, 237, 237)); font-size: 18px;&quot;&gt;Lemon&lt;/font&gt;" style="rounded=0;whiteSpace=wrap;html=1;fillColor=light-dark(#3d91ff, #ededed);" vertex="1" parent="1">
                    <mxGeometry x="330" y="560" width="80" height="40" as="geometry"/>
                </mxCell>
                <mxCell id="82" value="&lt;font style=&quot;font-size: 18px; color: rgb(255, 0, 0);&quot;&gt;X&lt;/font&gt;" style="text;html=1;align=center;verticalAlign=middle;whiteSpace=wrap;rounded=0;opacity=0;" parent="1" vertex="1">
                    <mxGeometry x="367.5" y="465" width="30" height="30" as="geometry"/>
                </mxCell>
                <mxCell id="140" value="" style="rounded=0;whiteSpace=wrap;html=1;movable=1;resizable=1;rotatable=1;deletable=1;editable=1;locked=0;connectable=1;fillColor=#ffe6cc;strokeColor=#d79b00;" vertex="1" parent="1">
                    <mxGeometry x="40" y="760" width="1070" height="80" as="geometry"/>
                </mxCell>
                <mxCell id="141" value="&lt;span style=&quot;color: rgb(63, 63, 63); font-size: 18px;&quot;&gt;单向链表-在 Banana 节点后添加 Lemon 节点后的新链表&lt;/span&gt;" style="text;html=1;align=center;verticalAlign=middle;whiteSpace=wrap;rounded=0;" vertex="1" parent="1">
                    <mxGeometry x="295" y="720" width="475" height="30" as="geometry"/>
                </mxCell>
                <mxCell id="142" value="" style="rounded=0;whiteSpace=wrap;html=1;fillColor=#cdeb8b;strokeColor=#36393d;" vertex="1" parent="1">
                    <mxGeometry x="50" y="770" width="140" height="60" as="geometry"/>
                </mxCell>
                <mxCell id="143" value="&lt;font style=&quot;color: light-dark(rgb(255, 255, 255), rgb(237, 237, 237)); font-size: 18px;&quot;&gt;Apple&lt;/font&gt;" style="rounded=0;whiteSpace=wrap;html=1;fillColor=light-dark(#3d91ff, #ededed);" vertex="1" parent="1">
                    <mxGeometry x="60" y="780" width="80" height="40" as="geometry"/>
                </mxCell>
                <mxCell id="144" style="edgeStyle=none;html=1;exitX=1;exitY=0.5;exitDx=0;exitDy=0;" edge="1" source="145" parent="1">
                    <mxGeometry relative="1" as="geometry">
                        <mxPoint x="230" y="799.96" as="targetPoint"/>
                    </mxGeometry>
                </mxCell>
                <mxCell id="145" value="&lt;font style=&quot;color: light-dark(rgb(255, 255, 255), rgb(237, 237, 237)); font-size: 14px;&quot;&gt;next&lt;/font&gt;" style="rounded=0;whiteSpace=wrap;html=1;fillColor=#FF6666;" vertex="1" parent="1">
                    <mxGeometry x="140" y="780" width="40" height="40" as="geometry"/>
                </mxCell>
                <mxCell id="146" value="" style="rounded=0;whiteSpace=wrap;html=1;fillColor=#cdeb8b;strokeColor=#36393d;" vertex="1" parent="1">
                    <mxGeometry x="230" y="770" width="140" height="60" as="geometry"/>
                </mxCell>
                <mxCell id="147" style="edgeStyle=none;html=1;exitX=1;exitY=0.5;exitDx=0;exitDy=0;" edge="1" source="148" parent="1">
                    <mxGeometry relative="1" as="geometry">
                        <mxPoint x="410" y="800" as="targetPoint"/>
                    </mxGeometry>
                </mxCell>
                <mxCell id="148" value="&lt;font style=&quot;color: light-dark(rgb(255, 255, 255), rgb(237, 237, 237)); font-size: 14px;&quot;&gt;next&lt;/font&gt;" style="rounded=0;whiteSpace=wrap;html=1;fillColor=#FF6666;" vertex="1" parent="1">
                    <mxGeometry x="320" y="780" width="40" height="40" as="geometry"/>
                </mxCell>
                <mxCell id="149" value="&lt;font style=&quot;color: light-dark(rgb(255, 255, 255), rgb(237, 237, 237)); font-size: 18px;&quot;&gt;Banana&lt;/font&gt;" style="rounded=0;whiteSpace=wrap;html=1;fillColor=light-dark(#3d91ff, #ededed);" vertex="1" parent="1">
                    <mxGeometry x="240" y="780" width="80" height="40" as="geometry"/>
                </mxCell>
                <mxCell id="150" value="" style="rounded=0;whiteSpace=wrap;html=1;fillColor=#cdeb8b;strokeColor=#36393d;" vertex="1" parent="1">
                    <mxGeometry x="410" y="770" width="140" height="60" as="geometry"/>
                </mxCell>
                <mxCell id="151" style="edgeStyle=none;html=1;exitX=1;exitY=0.5;exitDx=0;exitDy=0;" edge="1" source="152" parent="1">
                    <mxGeometry relative="1" as="geometry">
                        <mxPoint x="590" y="800" as="targetPoint"/>
                    </mxGeometry>
                </mxCell>
                <mxCell id="152" value="&lt;font style=&quot;color: light-dark(rgb(255, 255, 255), rgb(237, 237, 237)); font-size: 14px;&quot;&gt;next&lt;/font&gt;" style="rounded=0;whiteSpace=wrap;html=1;fillColor=#FF6666;" vertex="1" parent="1">
                    <mxGeometry x="500" y="780" width="40" height="40" as="geometry"/>
                </mxCell>
                <mxCell id="153" value="&lt;font style=&quot;color: light-dark(rgb(255, 255, 255), rgb(237, 237, 237)); font-size: 18px;&quot;&gt;Lemon&lt;/font&gt;" style="rounded=0;whiteSpace=wrap;html=1;fillColor=light-dark(#3d91ff, #ededed);" vertex="1" parent="1">
                    <mxGeometry x="420" y="780" width="80" height="40" as="geometry"/>
                </mxCell>
                <mxCell id="154" style="edgeStyle=none;html=1;exitX=1;exitY=0.5;exitDx=0;exitDy=0;" edge="1" source="155" parent="1">
                    <mxGeometry relative="1" as="geometry">
                        <mxPoint x="770" y="800" as="targetPoint"/>
                    </mxGeometry>
                </mxCell>
                <mxCell id="155" value="" style="rounded=0;whiteSpace=wrap;html=1;fillColor=#cdeb8b;strokeColor=#36393d;" vertex="1" parent="1">
                    <mxGeometry x="590" y="770" width="140" height="60" as="geometry"/>
                </mxCell>
                <mxCell id="156" value="&lt;font style=&quot;color: light-dark(rgb(255, 255, 255), rgb(237, 237, 237)); font-size: 14px;&quot;&gt;next&lt;/font&gt;" style="rounded=0;whiteSpace=wrap;html=1;fillColor=#FF6666;" vertex="1" parent="1">
                    <mxGeometry x="680" y="780" width="40" height="40" as="geometry"/>
                </mxCell>
                <mxCell id="157" value="&lt;font style=&quot;color: light-dark(rgb(255, 255, 255), rgb(237, 237, 237)); font-size: 18px;&quot;&gt;Orange&lt;/font&gt;" style="rounded=0;whiteSpace=wrap;html=1;fillColor=light-dark(#3d91ff, #ededed);" vertex="1" parent="1">
                    <mxGeometry x="600" y="780" width="80" height="40" as="geometry"/>
                </mxCell>
                <mxCell id="158" value="" style="rounded=0;whiteSpace=wrap;html=1;fillColor=#cdeb8b;strokeColor=#36393d;" vertex="1" parent="1">
                    <mxGeometry x="770" y="770" width="140" height="60" as="geometry"/>
                </mxCell>
                <mxCell id="159" value="&lt;font style=&quot;color: light-dark(rgb(255, 255, 255), rgb(237, 237, 237)); font-size: 14px;&quot;&gt;next&lt;/font&gt;" style="rounded=0;whiteSpace=wrap;html=1;fillColor=#FF6666;" vertex="1" parent="1">
                    <mxGeometry x="860" y="780" width="40" height="40" as="geometry"/>
                </mxCell>
                <mxCell id="160" value="&lt;font style=&quot;color: light-dark(rgb(255, 255, 255), rgb(237, 237, 237)); font-size: 18px;&quot;&gt;Peach&lt;/font&gt;" style="rounded=0;whiteSpace=wrap;html=1;fillColor=light-dark(#3d91ff, #ededed);" vertex="1" parent="1">
                    <mxGeometry x="780" y="780" width="80" height="40" as="geometry"/>
                </mxCell>
                <mxCell id="161" style="edgeStyle=none;html=1;exitX=1;exitY=0.5;exitDx=0;exitDy=0;" edge="1" parent="1">
                    <mxGeometry relative="1" as="geometry">
                        <mxPoint x="950" y="800" as="targetPoint"/>
                        <mxPoint x="910" y="800" as="sourcePoint"/>
                    </mxGeometry>
                </mxCell>
                <mxCell id="162" value="" style="rounded=0;whiteSpace=wrap;html=1;fillColor=#cdeb8b;strokeColor=#36393d;" vertex="1" parent="1">
                    <mxGeometry x="950" y="770" width="140" height="60" as="geometry"/>
                </mxCell>
                <mxCell id="163" value="&lt;font style=&quot;color: light-dark(rgb(255, 255, 255), rgb(237, 237, 237)); font-size: 18px;&quot;&gt;Pear&lt;/font&gt;" style="rounded=0;whiteSpace=wrap;html=1;fillColor=light-dark(#3d91ff, #ededed);" vertex="1" parent="1">
                    <mxGeometry x="960" y="780" width="80" height="40" as="geometry"/>
                </mxCell>
                <mxCell id="164" value="&lt;font style=&quot;color: light-dark(rgb(255, 255, 255), rgb(237, 237, 237)); font-size: 14px;&quot;&gt;next&lt;/font&gt;" style="rounded=0;whiteSpace=wrap;html=1;fillColor=#FF6666;" vertex="1" parent="1">
                    <mxGeometry x="1040" y="780" width="40" height="40" as="geometry"/>
                </mxCell>
            </root>
        </mxGraphModel>
    </diagram>
</mxfile>